normalP08_grf.mot
version=1
nRows=12
nColumns=19
inDegrees=yes
endheader
time	1_ground_force_vx	1_ground_force_vy	1_ground_force_vz	1_ground_force_px	1_ground_force_py	1_ground_force_pz	1_ground_torque_x	1_ground_torque_y	1_ground_torque_z	2_ground_force_vx	2_ground_force_vy	2_ground_force_vz	2_ground_force_px	2_ground_force_py	2_ground_force_pz	2_ground_torque_x	2_ground_torque_y	2_ground_torque_z
            1.745000	          -22.296351	          615.673561	           18.567969	            0.286307	            0.003010	           -0.282451	            0.011926	           -0.329304	           -0.009931	           -0.049518	            0.015566	            0.007952	            0.733252	            0.001336	           -0.174780	           -0.063478	            0.007178	            0.009702
            1.746000	          -21.890999	          615.591832	           18.490992	            0.286541	            0.003009	           -0.282428	            0.012131	           -0.341120	           -0.010246	           -0.025522	            0.335426	            0.024607	            0.733252	            0.001336	           -0.174780	           -0.029994	            0.006253	            0.009948
            1.747000	          -21.560291	          616.067855	           18.530758	            0.286889	            0.003008	           -0.282456	            0.012455	           -0.355891	           -0.010705	           -0.003478	            0.015782	            0.007835	            0.733252	            0.001336	           -0.174780	            0.003577	           -0.010850	            0.051256
            1.748000	          -21.214789	          616.385906	           18.569899	            0.286897	            0.003008	           -0.282383	            0.013508	           -0.392464	           -0.011824	           -0.018827	            0.014929	            0.007889	            0.733252	            0.001336	           -0.174780	           -0.130652	           -0.003061	            0.009675
            1.749000	          -20.815937	          616.621954	           18.509269	            0.287407	            0.003005	           -0.282126	            0.013898	           -0.411699	           -0.012358	           -0.041092	            0.255668	            0.008763	            0.733252	            0.001336	           -0.174780	           -0.080305	           -0.008420	           -0.094233
            1.750000	          -20.482885	          617.735657	           18.558877	            0.287565	            0.003004	           -0.282120	            0.014715	           -0.443774	           -0.013332	           -0.017098	            0.576052	            0.010044	            0.733252	            0.001336	           -0.174780	           -0.013019	           -0.009301	           -0.135982
            1.751000	          -20.138482	          617.734683	           18.589233	            0.287701	            0.003003	           -0.281955	            0.015722	           -0.482263	           -0.014513	           -0.002514	            0.335152	            0.024382	            0.733252	            0.001336	           -0.174780	            0.037361	           -0.012194	            0.175698
            1.752000	          -19.778813	          617.651114	           18.558153	            0.288137	            0.003002	           -0.282094	            0.016777	           -0.523899	           -0.015741	           -0.004237	           -0.224882	           -0.016181	            0.733252	            0.001336	           -0.174780	           -0.080352	           -0.006413	            0.113602
            1.753000	          -19.415571	          618.686490	           18.645778	            0.288258	            0.003002	           -0.282011	            0.016932	           -0.539551	           -0.016261	           -0.009452	            0.575250	           -0.005282	            0.733252	            0.001336	           -0.174780	           -0.046541	           -0.000865	           -0.011250
            1.754000	          -18.941553	          618.525276	           18.522481	            0.288457	            0.003000	           -0.281802	            0.017566	           -0.573614	           -0.017178	           -0.009450	            0.575116	            0.002433	            0.733252	            0.001336	           -0.174780	           -0.012910	            0.000720	            0.071808
            1.755000	          -18.564804	          619.000593	           18.508595	            0.288803	            0.002999	           -0.281884	            0.018305	           -0.610322	           -0.018249	           -0.024793	            0.575459	            0.017758	            0.733252	            0.001336	           -0.174780	            0.054198	           -0.000405	            0.113426
            1.756000	          -18.279579	          619.555036	           18.571596	            0.289249	            0.002998	           -0.281990	            0.018930	           -0.641584	           -0.019232	           -0.017132	            0.574893	            0.017755	            0.733252	            0.001336	           -0.174780	           -0.012860	            0.001409	            0.113304
